<?xml version="1.0" encoding="utf-8"?>
<!-- Generator: Adobe Illustrator 24.3.0, SVG Export Plug-In . SVG Version: 6.00 Build 0)  -->
<svg version="1.1" id="Layer_1" xmlns="http://www.w3.org/2000/svg" xmlns:xlink="http://www.w3.org/1999/xlink" x="0px" y="0px"
	 viewBox="0 0 144 144" style="enable-background:new 0 0 144 144;" xml:space="preserve">
<style type="text/css">
	.Arched_x0020_Green{fill:url(#SVGID_1_);stroke:#FFFFFF;stroke-width:0.25;stroke-miterlimit:1;}
	.st0{fill:url(#SVGID_2_);}
	.st1{fill:url(#SVGID_3_);}
	.st2{fill:url(#SVGID_4_);}
	.st3{fill:#231F20;}
	.st4{fill:url(#SVGID_5_);}
	.st5{fill:url(#SVGID_6_);}
	.st6{fill:url(#SVGID_7_);}
</style>
<linearGradient id="SVGID_1_" gradientUnits="userSpaceOnUse" x1="0" y1="144" x2="0.7071" y2="143.2929">
	<stop  offset="0" style="stop-color:#1EAB4B"/>
	<stop  offset="0.9831" style="stop-color:#19361A"/>
</linearGradient>
<g>
	
		<radialGradient id="SVGID_2_" cx="76.75" cy="3990.9785" r="168.5844" gradientTransform="matrix(1 0 0 0.6764 0 -2627.2678)" gradientUnits="userSpaceOnUse">
		<stop  offset="0.0727" style="stop-color:#D5D7D8"/>
		<stop  offset="0.0763" style="stop-color:#D3D5D6"/>
		<stop  offset="0.1616" style="stop-color:#A2A3A4"/>
		<stop  offset="0.2505" style="stop-color:#777878"/>
		<stop  offset="0.3429" style="stop-color:#525353"/>
		<stop  offset="0.4387" style="stop-color:#343535"/>
		<stop  offset="0.5391" style="stop-color:#1D1D1E"/>
		<stop  offset="0.6461" style="stop-color:#0D0D0D"/>
		<stop  offset="0.7641" style="stop-color:#030303"/>
		<stop  offset="0.9152" style="stop-color:#000000"/>
	</radialGradient>
	<rect class="st0" width="144" height="144"/>
	
		<radialGradient id="SVGID_3_" cx="72.3862" cy="12183.6338" r="61.5239" gradientTransform="matrix(1 0 0 0.4693 0 -5613.6631)" gradientUnits="userSpaceOnUse">
		<stop  offset="0.2545" style="stop-color:#000000"/>
		<stop  offset="0.2565" style="stop-color:#010101"/>
		<stop  offset="0.3469" style="stop-color:#3C3C3C"/>
		<stop  offset="0.4392" style="stop-color:#707070"/>
		<stop  offset="0.5319" style="stop-color:#9C9C9C"/>
		<stop  offset="0.6247" style="stop-color:#C0C0C0"/>
		<stop  offset="0.7177" style="stop-color:#DBDBDB"/>
		<stop  offset="0.8109" style="stop-color:#EFEFEF"/>
		<stop  offset="0.9047" style="stop-color:#FBFBFB"/>
		<stop  offset="1" style="stop-color:#FFFFFF"/>
	</radialGradient>
	<path class="st1" d="M133.91,104.12c0,15.96-27.54,28.87-61.52,28.87c-33.98,0-61.52-12.91-61.52-28.87
		c0-15.95,27.54-28.88,61.52-28.88C106.37,75.24,133.91,88.18,133.91,104.12z"/>
	<g>
		<radialGradient id="SVGID_4_" cx="57.6724" cy="28.6719" r="95.9148" gradientUnits="userSpaceOnUse">
			<stop  offset="0" style="stop-color:#FFFFFF"/>
			<stop  offset="0.2362" style="stop-color:#B1B1B1"/>
			<stop  offset="0.7455" style="stop-color:#000000"/>
		</radialGradient>
		<path class="st2" d="M112.32,70.22c0,21.98-17.82,39.79-39.79,39.79c-21.98,0-39.79-17.82-39.79-39.79s17.81-39.79,39.79-39.79
			C94.51,30.43,112.32,48.25,112.32,70.22z"/>
		
			<ellipse transform="matrix(1 -4.521252e-03 4.521252e-03 1 -0.3167 0.3286)" class="st3" cx="72.53" cy="70.22" rx="33.62" ry="33.62"/>
		<linearGradient id="SVGID_5_" gradientUnits="userSpaceOnUse" x1="67.651" y1="55.6735" x2="107.7158" y2="165.9176">
			<stop  offset="0" style="stop-color:#FFFFFF"/>
			<stop  offset="0.0857" style="stop-color:#F7F7F7"/>
			<stop  offset="0.2185" style="stop-color:#E1E1E1"/>
			<stop  offset="0.3818" style="stop-color:#BEBEBE"/>
			<stop  offset="0.5692" style="stop-color:#8C8C8C"/>
			<stop  offset="0.7771" style="stop-color:#4C4C4C"/>
			<stop  offset="1" style="stop-color:#000000"/>
		</linearGradient>
		<path class="st4" d="M106.15,70.86c0,18.21-14.77,32.98-32.98,32.98c-18.22,0-32.98-14.77-32.98-32.98
			c0-18.21,14.76-32.98,32.98-32.98C91.38,37.88,106.15,52.65,106.15,70.86z"/>
		<linearGradient id="SVGID_6_" gradientUnits="userSpaceOnUse" x1="55.7933" y1="55.5423" x2="164.8692" y2="151.9122">
			<stop  offset="0" style="stop-color:#FFFFFF"/>
			<stop  offset="0.0857" style="stop-color:#F7F7F7"/>
			<stop  offset="0.2185" style="stop-color:#E1E1E1"/>
			<stop  offset="0.3818" style="stop-color:#BEBEBE"/>
			<stop  offset="0.5692" style="stop-color:#8C8C8C"/>
			<stop  offset="0.7771" style="stop-color:#4C4C4C"/>
			<stop  offset="1" style="stop-color:#000000"/>
		</linearGradient>
		<path class="st5" d="M105.62,65.02c-0.22-1.26-0.52-2.49-0.88-3.7l-31.22,9.53l29.67-13.65c-0.53-1.16-1.11-2.28-1.76-3.36
			L73.52,70.78l25.39-20.53c-0.79-0.99-1.64-1.93-2.54-2.83L73.5,70.7l19.55-26.15c-1.01-0.76-2.06-1.47-3.16-2.11L73.46,70.63
			l12.51-30.17c-1.16-0.49-2.36-0.91-3.58-1.26L73.4,70.57l4.69-32.32c-1.24-0.19-2.5-0.29-3.78-0.34l-0.97,32.62l-3.42-32.48
			c-1.27,0.13-2.53,0.33-3.75,0.59l7.1,31.87L61.93,39.85c-1.2,0.43-2.36,0.94-3.49,1.51l14.73,29.14L54.64,43.57
			c-1.05,0.71-2.05,1.49-3.01,2.32l21.46,24.62L48.5,48.98c-0.84,0.95-1.63,1.94-2.35,2.99l26.87,18.58L43.87,55.73
			c-0.58,1.12-1.1,2.28-1.55,3.47L72.95,70.6l-31.91-7.18c-0.28,1.23-0.5,2.48-0.64,3.75l32.5,3.49l-32.69,0.91
			c0.03,1.28,0.13,2.55,0.3,3.79l32.37-4.63l-31.48,8.94c0.34,1.23,0.75,2.44,1.23,3.6l30.25-12.46L44.55,87.24
			c0.63,1.1,1.32,2.17,2.08,3.19L72.87,70.9L49.48,93.79c0.88,0.91,1.81,1.78,2.8,2.58l20.63-25.4L55.87,98.93
			c1.08,0.67,2.2,1.27,3.35,1.81l13.73-29.7l-9.63,31.3c1.2,0.38,2.44,0.68,3.7,0.91l5.99-32.16l-1.62,32.69
			c0.59,0.03,1.18,0.05,1.78,0.05c0.68,0,1.36-0.03,2.03-0.07l-2.11-32.64l0.02-0.01l7.52,31.87c1.24-0.29,2.46-0.64,3.64-1.06
			L73.17,71.13l0,0l15.94,28.6c1.11-0.62,2.18-1.3,3.21-2.03L73.27,71.14l22.46,23.76c0.93-0.87,1.8-1.79,2.62-2.76l-25-21.03
			l27.62,17.49c0.68-1.06,1.31-2.17,1.87-3.31L73.41,71.07l31.07,10.15c0.4-1.2,0.73-2.42,0.99-3.67l-32-6.54l32.59,2.18
			c0.05-0.77,0.09-1.55,0.09-2.33c0-0.49-0.02-0.98-0.04-1.47L73.5,70.94L105.62,65.02z M73.08,71.02L73.08,71.02l0.01,0.02l0,0
			L73.08,71.02z M73.08,71.12l0-0.06l0.01,0l0.01,0.04L73.08,71.12z M73.17,71.12L73.17,71.12L73.17,71.12L73.17,71.12z
			 M73.32,70.84l-0.01,0.03L73.3,70.9l-0.02,0.02l-0.03,0.02l-0.03,0.01l-0.03,0l-0.03-0.01l-0.03-0.01l-0.02-0.02l-0.02-0.02
			l-0.01-0.04l0-0.03l0.01-0.03l0.01-0.03l0.02-0.02l0.03-0.02l0.03-0.01l0.03-0.01l0.03,0l0.03,0.01l0.03,0.02l0.02,0.02l0.01,0.03
			l0.01,0.03L73.32,70.84z"/>
		<linearGradient id="SVGID_7_" gradientUnits="userSpaceOnUse" x1="66.1872" y1="52.647" x2="73.1172" y2="71.9538">
			<stop  offset="0" style="stop-color:#000000"/>
			<stop  offset="0.0777" style="stop-color:#090909"/>
			<stop  offset="0.2052" style="stop-color:#222222"/>
			<stop  offset="0.3668" style="stop-color:#4A4A4A"/>
			<stop  offset="0.5561" style="stop-color:#828282"/>
			<stop  offset="0.766" style="stop-color:#C9C9C9"/>
			<stop  offset="0.9152" style="stop-color:#FFFFFF"/>
		</linearGradient>
		<path class="st6" d="M72.53,30.92c-21.7,0-39.3,17.59-39.3,39.3c0,4.87,0.89,9.53,2.51,13.84c1.19-1.2,29.16-28.76,72.91-29.31
			C102.65,40.74,88.74,30.92,72.53,30.92z"/>
		<g>
			<path class="st3" d="M76.57,70.86c0,1.88-1.52,3.4-3.4,3.4s-3.4-1.52-3.4-3.4c0-1.88,1.52-3.4,3.4-3.4S76.57,68.98,76.57,70.86z"
				/>
			<polygon class="st3" points="73.81,72.45 94.66,51.6 72.96,69.69 57,60.11 72.32,72.03 			"/>
		</g>
	</g>
</g>
</svg>
