<?xml version="1.0" encoding="utf-8"?>
<!-- Generator: Adobe Illustrator 19.0.0, SVG Export Plug-In . SVG Version: 6.00 Build 0)  -->
<svg version="1.1" xmlns="http://www.w3.org/2000/svg" xmlns:xlink="http://www.w3.org/1999/xlink" x="0px" y="0px"
	 viewBox="0 0 1400 980" style="enable-background:new 0 0 1400 980;" xml:space="preserve">
<style type="text/css">
	.st0{fill:#5DC6C6;}
	.st1{fill:#1FBCB8;}
	.st2{font-family:'Geometos';}
	.st3{font-size:137.4257px;}
	.st4{font-size:90.0525px;}
	.st5{font-size:194.2049px;}
	.st6{font-size:116.5091px;}
	.st7{fill:#EB8B23;}
	.st8{fill:#F2BA1A;}
	.st9{fill:#325678;}
	.st10{fill:#FFFFFF;}
	.st11{fill:#5DC6C7;}
	.st12{font-family:'Futura-HeavyOblique';}
	.st13{font-size:54.7207px;}
	.st14{fill:#393854;}
	.st15{fill:#FCB343;}
	.st16{fill:#DDDAD3;}
	.st17{fill:#46476E;}
	.st18{fill:#201915;}
	.st19{font-family:'FuturaT-Bold';}
	.st20{font-size:68.2971px;}
	.st21{fill:#9A9999;}
	.st22{fill:#CECCCC;}
	.st23{fill:#121212;}
	.st24{fill:#5A5A5B;}
	.st25{fill:url(#XMLID_74_);}
	.st26{opacity:0.35;fill:#FFFFFF;enable-background:new    ;}
	.st27{fill:url(#XMLID_76_);}
	.st28{fill:none;stroke:#FFFFFF;stroke-width:10;stroke-miterlimit:10;}
	.st29{fill:#172D54;}
	.st30{fill:#010101;}
	.st31{fill:#E8AE8C;}
	.st32{fill:#D59374;}
	.st33{fill:#F5FAF1;}
	.st34{fill:#F0BC98;}
	.st35{fill:#020202;}
	.st36{fill:#F15751;}
	.st37{fill:#F7F8F8;}
	.st38{fill:#8B5624;}
	.st39{fill:#F7FAFC;}
	.st40{fill:#F69585;}
	.st41{fill:#224F8E;}
	.st42{fill:#D6D7D8;}
</style>
<g id="Layer_2">
	<rect id="XMLID_25_" class="st0" width="1400" height="980"/>
</g>
<g id="Layer_1">
	<g id="XMLID_213_">
		<text id="XMLID_112_" transform="matrix(1 0 0 1 408.5029 551.9142)" class="st1 st2 st3">@</text>
	</g>
	<g id="XMLID_217_">
		<text id="XMLID_110_" transform="matrix(1 0 0 1 976.6334 408.3904)" class="st1 st2 st4">@</text>
	</g>
	<g id="XMLID_237_">
		<text id="XMLID_108_" transform="matrix(1 0 0 1 319.1305 815.9166)" class="st1 st2 st4">@</text>
	</g>
	<g id="XMLID_208_">
		<text id="XMLID_105_" transform="matrix(1 0 0 1 408.5031 325.9424)" class="st1 st2 st5">?</text>
	</g>
	<g id="XMLID_223_">
		<text id="XMLID_103_" transform="matrix(1 0 0 1 796.542 480.2615)" class="st1 st2 st6">?</text>
	</g>
	<g id="XMLID_230_">
		<text id="XMLID_101_" transform="matrix(1 0 0 1 894.5129 814.4121)" class="st1 st2 st6">?</text>
	</g>
	<g id="XMLID_37_">
		<path id="XMLID_82_" class="st7" d="M1135.8,487.5c-8.7,8.7-24.6,12.6-33,1.8c0.1,0,0.2,0,0.3,0c9.3,1,21.5-7.5,16.3-18
			c-2-4-6.3-6.6-10.7-6.5c-5.2,0.2-9.5,4.2-12.3,8.2c-1.5,2.1-2.3,4.3-2.6,6.5c-8.3-5.7-12.1-16.9-8.1-27c1.7-4.2,4.7-8.1,8.7-10.2
			c-0.2,0.7-0.4,1.4-0.5,2.2c-0.8,4.6-0.7,9.8,3.1,13c3.2,2.8,8,3.1,11.8,1.4c4.3-1.9,8.1-6.5,9-11.2c0.9-4.4-2.2-8-5.7-10.3
			c-2.2-1.5-4.7-2.3-7.2-2.7c2.8-3.4,6.4-6.1,10.6-7.9c3.6-1.6,0.5-6.8-3.1-5.2c-6.2,2.7-11.6,7.5-15,13.3
			c-4.3,0.9-8.4,3.1-11.5,6.3c-7.4,7.6-10.4,20.1-6.4,30c2.7,6.7,8.4,12.5,15.1,15.6c2,5.5,6.8,10.3,12.2,12.8
			c11.6,5.4,24.7,0.6,33.3-8C1142.8,489,1138.5,484.7,1135.8,487.5z M1110.2,450c-1.9,2.9-6.8,6-9.6,2.6c-2.3-2.7-0.9-7.5,0.2-10.6
			c0.2-0.4,0.3-0.9,0.5-1.3C1106.9,440.8,1114.3,443.8,1110.2,450z M1100.4,477.9c1.5-2.9,5.3-7.2,8.8-7c4,0.2,6.1,4.3,4.4,7.7
			c-1.9,3.9-6.2,5.1-10.2,4.6c-1.3-0.2-2.6-0.4-3.8-0.8C1099.4,480.9,1099.6,479.4,1100.4,477.9z"/>
		<path id="XMLID_42_" class="st8" d="M1139.6,465.8l-6.2,23.2c-3.6,13.1,6.3,26.1,20,26.1h70.2V401.6l0,0
			C1184.3,401.6,1149.8,427.9,1139.6,465.8z"/>
		<path id="XMLID_41_" class="st7" d="M1293.7,515.1c13.6,0,23.5-12.9,20-26.1l-6.2-23.2c-10.2-37.9-44.7-64.2-83.9-64.2l0,0v113.5
			H1293.7z"/>
		<path id="XMLID_40_" class="st7" d="M1317,374.2c-35.4-18.5-93.5-18.5-93.5-18.5v27.4c21,0.3,44.9,7,56.2,10.5c3,1,5.3,3.5,6,6.4
			c3.8,3.2,12.3,9.7,24.9,15.5c12.4,5.8,26.2,7.6,31.4,8.2c0.4-0.9,0.8-1.8,1-2.9C1345.5,408.2,1339.1,385.8,1317,374.2z"/>
		<path id="XMLID_39_" class="st8" d="M1130.1,374.2c-22.1,11.5-28.5,33.9-26.1,46.8c0.2,1,0.5,1.9,1,2.8c5.4-0.5,19.1-2.4,31.5-8.2
			c13-6.1,21.6-13,25.1-16.1c0.9-2.8,3-4.9,5.8-5.9c11.3-3.6,35.2-10.2,56.2-10.5v-27.3C1223.5,355.7,1165.5,355.7,1130.1,374.2z"/>
		<circle id="XMLID_35_" class="st9" cx="1223.5" cy="463.1" r="33.1"/>
		<g id="XMLID_33_">
			<path id="XMLID_34_" class="st10" d="M1154.4,464.1L1154.4,464.1c-1.4-0.5-2.1-2.1-1.5-3.5c12.7-31.2,37.1-41.9,45.2-44.7
				c1.5-0.5,3,0.3,3.4,1.8l0.6,2.4l-0.6-2.5v0.2c0.3,1.3-0.4,2.6-1.6,3c-7.3,2.6-30.3,12.8-42.1,41.7
				C1157.2,463.9,1155.7,464.6,1154.4,464.1z"/>
		</g>
		<path id="XMLID_32_" class="st9" d="M1105,423.9c1.6,3.1,4.9,5.1,8.7,5.3c9.3,0.3,27-1.9,44.3-18.7c2.2-2.1,3.3-4.9,3.1-7.9
			c0-1,0.1-2,0.3-3c-3.5,3.1-12,10.1-25.1,16.1C1124.1,421.4,1110.3,423.3,1105,423.9z"/>
		<path id="XMLID_31_" class="st9" d="M1310.7,415.7c-12.6-5.8-21.2-12.3-24.9-15.5c0.2,0.8,0.3,1.6,0.3,2.3c-0.1,3,1,5.9,3.1,7.9
			c17.4,16.7,35.1,18.9,44.3,18.7c3.6-0.1,6.9-2.2,8.7-5.3C1336.9,423.3,1323.1,421.5,1310.7,415.7z"/>
		<path id="XMLID_30_" class="st10" d="M1151.3,471.3c-3.4,0-3.4,5.2,0,5.2S1154.7,471.3,1151.3,471.3z"/>
		<circle id="XMLID_43_" class="st10" cx="1223.5" cy="436.4" r="2.7"/>
		<circle id="XMLID_55_" class="st10" cx="1223.7" cy="489.5" r="2.7"/>
		<circle id="XMLID_73_" class="st10" cx="1243.5" cy="480.3" r="2.7"/>
		<circle id="XMLID_56_" class="st10" cx="1204.9" cy="480.3" r="2.7"/>
		<circle id="XMLID_57_" class="st10" cx="1204.9" cy="444.3" r="2.7"/>
		<circle id="XMLID_71_" class="st10" cx="1242.9" cy="444.3" r="2.7"/>
		<circle id="XMLID_49_" class="st10" cx="1196.4" cy="463.1" r="2.7"/>
		<circle id="XMLID_46_" class="st10" cx="1250.3" cy="463.1" r="2.7"/>
		<circle id="XMLID_48_" class="st11" cx="1223.5" cy="463.1" r="11.5"/>
	</g>
	<g id="XMLID_211_">
		<g id="XMLID_45_">
			<text id="XMLID_99_" transform="matrix(1 0 0 1 203.8066 249.4868)" class="st9 st12 st13">24</text>
		</g>
		<g id="XMLID_177_">
			<text id="XMLID_97_" transform="matrix(1 0 0 1 277.4947 319.6055)" class="st9 st12 st13">7</text>
		</g>
		<g id="XMLID_176_">
			<text id="XMLID_98_" transform="matrix(1 0 0 1 255.2554 277.2422)" class="st10 st12 st13">/</text>
		</g>
		<path id="XMLID_180_" class="st8" d="M307.1,347.3h-78.9c-29.3,0-53-23.7-53-53v-57.2c0-29.3,23.7-53,53-53h57.7
			c24.3,0,44.8,16.4,51,38.7l-10.4-10.8c-3.5-3.6-9.3-3.7-12.9-0.2l0,0c-3.6,3.5-3.7,9.3-0.2,12.9l35,36.1l34.3-36.1
			c3.5-3.6,3.3-9.4-0.3-12.9v0c-3.6-3.5-9.4-3.3-12.9,0.3l-13.2,13.9c-5.3-34.1-34.8-60.2-70.3-60.2h-57.7
			c-39.3,0-71.2,31.9-71.2,71.2v57.2c0,39.3,31.9,71.2,71.2,71.2h78.9c23.8,0,43.7-16.7,48.8-38.9c1.3-5.7-3-11.1-8.9-11.1h0
			c-4.2,0-7.9,2.9-8.9,7C334.9,336.7,322.2,347.3,307.1,347.3z"/>
	</g>
	<g id="XMLID_26_">
		<path id="XMLID_182_" class="st14" d="M1044.4,309.3H835.5c-12.8,0-23.1-10.4-23.1-23.1V150.9c0-10,8.1-18.1,18.1-18.1h226.1
			c6.1,0,11.1,5,11.1,11.1v142.2C1067.5,298.9,1057.2,309.3,1044.4,309.3z"/>
		<path id="XMLID_181_" class="st15" d="M821.1,125.6l102.4-86.7c9.5-8.1,23.5-8.1,33,0l102.4,86.7c5.4,4.7,8.6,11.5,8.6,18.7l0,0
			l-127.5,99.2l-127.5-99.2l0,0C812.4,137,815.5,130.2,821.1,125.6z"/>
		<polygon id="XMLID_178_" class="st10" points="1048.8,81.9 831,81.9 831,158.8 911.9,221.6 968,221.6 1048.8,158.8 		"/>
		<rect id="XMLID_183_" x="859" y="115.6" class="st16" width="161.8" height="6.7"/>
		<rect id="XMLID_185_" x="859.1" y="132.8" class="st16" width="161.8" height="6.7"/>
		<rect id="XMLID_189_" x="859.1" y="150.6" class="st16" width="161.8" height="6.7"/>
		<rect id="XMLID_187_" x="859.2" y="167.8" class="st16" width="161.8" height="6.7"/>
		<polygon id="XMLID_194_" class="st16" points="1006.3,191.8 873.4,191.8 865,185.1 1015.4,185.1 		"/>
		<polygon id="XMLID_190_" class="st16" points="984.2,209.1 895.6,209.1 886.8,202.3 992.9,202.3 		"/>
		<path id="XMLID_179_" class="st17" d="M817.2,300.3l108-89.7c8.6-7.1,21-7.1,29.4,0l108,89.7c0,0-5.8,9-18.3,9s-12.5,0-12.5,0
			H835.5C835.5,309.3,823.4,310.3,817.2,300.3z"/>
	</g>
	<g id="XMLID_215_">
		<path id="XMLID_210_" class="st17" d="M596.2,74.9c-48.2,0-87.4,29-87.4,64.8c0,25.4,19.5,47.3,48.1,57.9l0,0
			c0,0-2.9,19.5-24,30.5c0,0,38.5,7.9,60-23.7l0,0c1.2,0,2,0,3.1,0c48.2,0,87.4-29,87.4-64.8C683.4,103.9,644.4,74.9,596.2,74.9z"/>
		<path id="XMLID_117_" class="st10" d="M553.2,57.3c-48.2,0-87.4,29-87.4,64.8c0,25.4,19.5,47.3,48.1,57.9l0,0
			c0,0-2.9,19.5-24,30.5c0,0,38.5,7.9,60-23.7l0,0c1.2,0,2,0,3.1,0c48.2,0,87.4-29,87.4-64.8C640.5,86.3,601.4,57.3,553.2,57.3z"/>
		<text id="XMLID_206_" transform="matrix(1 0 0 1 518.9702 140.3741)" class="st18 st19 st20">Hi</text>
	</g>
	<g id="XMLID_27_">
		<g id="XMLID_58_">
			<path id="XMLID_114_" class="st21" d="M271.4,821.1h-91.6c-14.9,0-26.9-10.8-26.9-24.2V570.4c0-13.4,12.1-24.2,26.9-24.2h91.6
				c14.9,0,26.9,10.8,26.9,24.2V797C298.2,810.3,286.2,821.1,271.4,821.1z"/>
			<path id="XMLID_113_" class="st22" d="M152.9,785.9l0,11c0,0-0.4,7.8,5.8,15c6.2,7.1,17.8,9.2,21.2,9.2v-12.5L152.9,785.9z"/>
			<path id="XMLID_116_" class="st22" d="M298.3,785.9l0,11c0,0,0.3,7.7-5.8,15c-6.9,8.3-17.8,9.2-21.2,9.2v-12.5L298.3,785.9z"/>
			<path id="XMLID_107_" class="st23" d="M271.4,809.2h-91.6c-14.9,0-26.9-10.8-26.9-24.2V558.5c0-13.4,12.1-24.2,26.9-24.2h91.6
				c14.9,0,26.9,10.8,26.9,24.2v226.5C298.2,798.4,286.2,809.2,271.4,809.2z"/>
			<rect id="XMLID_68_" x="160.3" y="570.9" class="st8" width="129.6" height="194.5"/>
			<circle id="XMLID_65_" class="st24" cx="201.8" cy="554.9" r="3"/>
			<circle id="XMLID_64_" class="st24" cx="225.5" cy="545.2" r="2"/>
			<path id="XMLID_63_" class="st24" d="M236,556.5h-20.9c-0.9,0-1.6-0.7-1.6-1.6l0,0c0-0.9,0.7-1.6,1.6-1.6H236
				c0.9,0,1.6,0.7,1.6,1.6l0,0C237.7,555.8,236.9,556.5,236,556.5z"/>
			
				<radialGradient id="XMLID_74_" cx="500.0955" cy="343.6663" r="11.5579" gradientTransform="matrix(4.489659e-011 1 1 -4.489659e-011 -119.2467 290.819)" gradientUnits="userSpaceOnUse">
				<stop  offset="1.021794e-007" style="stop-color:#212121"/>
				<stop  offset="1" style="stop-color:#010101"/>
			</radialGradient>
			<circle id="XMLID_62_" class="st25" cx="224.4" cy="790.9" r="11.6"/>
			<polygon id="XMLID_61_" class="st26" points="160.3,570.9 290,765.4 278.9,765.4 160.3,584.7 			"/>
			<polygon id="XMLID_60_" class="st26" points="210.2,570.9 289.5,696 289.5,668.1 232.1,570.8 			"/>
			<polygon id="XMLID_59_" class="st26" points="160.3,630 253.5,765.4 249.8,765.4 160.3,635.2 			"/>
			
				<radialGradient id="XMLID_76_" cx="225.5613" cy="791.0886" r="6.9744" gradientTransform="matrix(1 0 0 1.2344 0 -160.5835)" gradientUnits="userSpaceOnUse">
				<stop  offset="1.021794e-007" style="stop-color:#212121"/>
				<stop  offset="1" style="stop-color:#010101"/>
			</radialGradient>
			<path id="XMLID_115_" class="st27" d="M234.4,817.4h-17.6c-0.5,0-1-0.4-1-1v-1.1c0-0.5,0.4-1,1-1h17.6c0.5,0,1,0.4,1,1v1.1
				C235.3,817,234.9,817.4,234.4,817.4z"/>
		</g>
		<g id="XMLID_207_">
			<path id="XMLID_234_" class="st10" d="M108.4,465.5c13-8.7,27.4-13,43.2-13.7c8.1-0.4,16.2,0.2,24.5,1.7c4.8,0.8,8.3,4.7,8.6,9.3
				c0.2,4.7-3,7.5-7.8,6.7c-8.6-1.5-17-2-25.2-1.3c-9.7,0.8-18.8,3.2-27.1,7.6c-15.3,8.1-25.4,21.4-31.8,38.4
				c-2,5.2-3.4,10.6-4.5,16.3c-1.3,6.2-7.7,7.4-12.4,2.2c-2.1-2.3-2.9-5-2.4-7.8c0.8-4.9,2-9.7,3.5-14.3c3.6-11.4,8.9-21.7,16-30.6
				C97.6,474.2,103,469.3,108.4,465.5z"/>
			<path id="XMLID_233_" class="st10" d="M128.4,492.6c12-7.9,26.3-10.6,42-9c2.1,0.2,4.3,0.5,6.4,1c3.2,0.7,5.5,3,6.8,6.3
				c1.3,3.4,0.7,6.2-1.5,8.2c-1.6,1.5-3.7,1.6-5.9,1.2c-9.7-1.6-19-1.3-27.7,1.6c-11.3,3.8-19.6,11.3-25,22.4
				c-2.4,5-4.1,10.3-5.2,16c-0.6,2.8-2.1,4.7-4.8,5.1c-5.6,0.9-11-5.1-9.9-11.1c1.3-7.3,3.5-14.1,6.7-20.4
				C114.6,505.2,120.5,498.1,128.4,492.6z"/>
			<path id="XMLID_232_" class="st10" d="M147.3,520.7c7.5-5,16.2-6.5,25.9-5.2c4.3,0.6,7.8,4.5,8.2,9c0.4,4.3-2.5,7.5-6.8,7
				c-4.7-0.5-9.2-0.4-13.4,1.3c-6.6,2.6-10.8,7.8-13.3,14.8c-0.7,1.9-1,4.1-2.4,5.6c-2.1,2.2-5.6,2.4-8.6,0.4
				c-3.2-2.1-5.1-5.9-4.4-9.2c1.2-6.2,3.8-11.5,7.3-16.2C141.8,525.2,144.3,522.7,147.3,520.7z"/>
		</g>
	</g>
	<g id="XMLID_209_">
		<path id="XMLID_212_" class="st8" d="M1060.9,655.9c-43.5,48.5-39.4,123.1,9.2,166.6l157.4-175.7
			C1179,603.2,1104.4,607.4,1060.9,655.9z"/>
		<path id="XMLID_214_" class="st7" d="M1227.5,646.7l-157.4,175.7c48.5,43.5,123.1,39.4,166.6-9.2
			C1280.1,764.8,1276,690.2,1227.5,646.7z"/>
		<path id="XMLID_246_" class="st14" d="M1153.2,655.2c-45.8,0-83.1,37.3-83.1,83.1s37.3,83.1,83.1,83.1c45.8,0,83.1-37.3,83.1-83.1
			S1199.1,655.2,1153.2,655.2z M1147.5,666.9v25.9c-9.9-0.4-18.7-1.6-26-3c2-8.6,4-14.9,5-18
			C1133.1,669.2,1140.2,667.5,1147.5,666.9z M1185.3,690c-9.3,1.7-18.2,2.6-26.4,2.8v-26c7.5,0.6,14.6,2.3,21.2,5
			C1181.1,674.6,1183.1,680.9,1185.3,690z M1194.5,679.8c2.7,1.9,5.2,4,7.6,6.2c-1.9,0.5-3.8,1.1-5.6,1.5
			C1195.8,684.7,1195.2,682.1,1194.5,679.8z M1188.9,777.2c-10.6-2.1-20.7-3.2-30-3.5v-29.6h32.9
			C1191.8,754.7,1191,765.9,1188.9,777.2z M1115.2,744.1h32.3v29.5c-11.2,0.3-21.1,1.7-29.2,3.3
			C1116.2,765.7,1115.3,754.6,1115.2,744.1z M1147.5,732.7h-32c0.6-11.6,2-22.3,3.7-31.5c7.9,1.6,17.5,2.9,28.3,3.3V732.7z
			 M1158.9,732.7v-28.3c8.9-0.3,18.6-1.2,28.8-3.2c1.7,9.1,3.2,19.8,3.8,31.4H1158.9z M1110.4,687.2c-2.1-0.6-4-1.2-5.5-1.7
			c2.4-2.2,4.9-4.2,7.5-6C1111.7,681.8,1111,684.4,1110.4,687.2z M1108,698.5c-0.8,4.4-1.6,9.1-2.2,14.1c-0.8,6.1-1.4,12.8-1.8,20.1
			h-22.2c1.1-14.2,6.4-27.3,14.7-38C1098.8,695.6,1102.7,697,1108,698.5z M1103.8,744.1c0.1,11.2,1,23.2,3.4,35.5
			c-4.3,1.2-7.7,2.4-10.2,3.3c-8.6-10.8-14.1-24.2-15.3-38.8H1103.8z M1109.7,790.8c0.5,1.9,1.1,3.8,1.6,5.8c-2-1.4-3.9-3-5.7-4.6
			C1106.9,791.6,1108.2,791.2,1109.7,790.8z M1120.8,788.2c7.4-1.5,16.4-2.7,26.7-3v24.7c-7.4-0.6-14.5-2.3-21.1-5
			C1124.2,799.4,1122.3,793.8,1120.8,788.2z M1158.9,785.2c8.6,0.3,17.8,1.3,27.5,3.2c-1.4,5.3-3.1,10.7-5.1,16
			c-7,3-14.5,4.9-22.4,5.5V785.2z M1197.6,791c1.1,0.3,2.2,0.6,3.3,0.9c-1.5,1.3-3,2.6-4.6,3.8
			C1196.7,794.1,1197.1,792.5,1197.6,791z M1200,779.8c2.3-12.4,3.2-24.5,3.2-35.7h21.4c-1.1,14.5-6.6,27.7-15.1,38.5
			C1206.4,781.6,1203.2,780.6,1200,779.8z M1203,732.7c-0.3-6.9-1-13.3-1.7-19c-0.7-5.3-1.5-10.3-2.4-14.9c3.8-1,7.7-2.1,11.6-3.4
			c7.9,10.6,13,23.4,14.1,37.3H1203z"/>
	</g>
	<path id="XMLID_192_" class="st28" d="M365,639.6h56.5c39.2,0,71,31.8,71,71v36.2c0,31.3,25.5,56.5,56.7,56.3l80.8-0.6"/>
	<path id="XMLID_193_" class="st28" d="M590.2,243.5v91.9c0,30,24.3,54.3,54.3,54.3h0c22.6,0,40.9,18.3,40.9,40.9v112.5"/>
	<path id="XMLID_191_" class="st28" d="M340.1,389.8v70.6c0,29.2,23.6,53,52.8,53.3l126.4,1.1c18.7,0.2,33.8,15.4,33.8,34.1v0
		c0,18.8,15.3,34,34.1,33.8l47.9-0.5"/>
	<path id="XMLID_196_" class="st28" d="M899.6,355.7v107.5c0,35.3-28.6,63.9-63.9,63.9h-57.5"/>
	<path id="XMLID_197_" class="st28" d="M1223.5,534.4l0,7.4c0.1,22.4-18,40.5-40.3,40.6l-213.8,0.5c-32.8,0.1-59.4,26.7-59.4,59.5v0
		c0,32-25.8,57.9-57.8,58.1l-122.7,0.7"/>
	<line id="XMLID_216_" class="st28" x1="1015.4" y1="776.9" x2="773.7" y2="776.9"/>
	<g id="XMLID_21_">
		<path id="XMLID_54_" class="st29" d="M639.4,736.2c0,0-121.7,41.7-125.4,150.8h373.6c0,0-27.6-121.5-130.7-150.8H639.4z"/>
		<path id="XMLID_53_" class="st30" d="M635,696.9h130.1c0,0,20.3-30.7,10.4-46.7l-159.2-4L635,696.9z"/>
		<path id="XMLID_51_" class="st31" d="M757,737.6c-8.6,24.7-30.7,40.2-58,40.3c-27.3,0.1-51-16.5-59.6-41.7
			c8.4-7.8,9.2-17.9,8.8-28.6c-0.3-6.1,0-12.1,0-18.1c5.6,5.2,11,10.4,16.6,15.5c18,16.6,43.8,17.7,63.6,3.6
			c8.1-5.7,13.5-14,21.9-19.1C750.8,705.6,748.9,722.3,757,737.6z"/>
		<path id="XMLID_50_" class="st32" d="M750.4,689.4c-8.4,5.2-13.8,13.4-21.9,19.1c-19.8,14-45.6,13-63.6-3.6
			c-5.6-5-11-10.3-16.6-15.5c-0.7-2.1-2.8-4.5,0-6.7c6.7,6,13,12.6,20.3,17.7c22.7,16.3,47.4,14.2,67.9-4.7
			c5.3-4.9,10.4-9.9,15.8-14.8C752.7,684,751.7,686.6,750.4,689.4z"/>
		<path id="XMLID_47_" class="st33" d="M639.4,736.2c0,0,10.3,39.3,58.7,41.7c0,0,42.9,2.7,58.7-40.3l-39.7,149.5h-37.5L639.4,736.2
			z"/>
		<path id="XMLID_52_" class="st34" d="M644.4,681.6c-14.5-14.5-23.1-31.8-25.2-52.2c-0.3-2.5-1.4-4.2-3.5-5.6
			c-17.4-13-17.6-32.5-19.5-51.3c-0.7-7,3.2-8.6,9.2-7.5c1.7,5.9,3.3,11.7,4.9,17.6c0.5,1.9,1.5,3.9,3.5,3.9c3.3,0,2.9-2.9,2.9-5
			c0.1-3.5,0.1-6.8,0-10.3c-0.7-17.7,0.5-35,7.1-51.6c4.3-10.8,10.8-18,23.9-17c9.4,0.7,19,0.1,28.4,2.1c9.5,1.9,19.3,4.6,29.3,2.1
			c13.4-3.3,27.1-4.3,40.7-4c16,0.4,21.2,3.5,26.2,18.4c5.6,16.3,8.1,33.2,7.4,50.5c-0.3,4.9-1.5,10.4,2.1,16.6
			c6.1-7.5,4.9-16.3,9.1-23c6-1.4,9.9,0,9.4,7.1c-1.5,19-2.1,38.4-19.3,51.5c-2.2,1.8-3.5,3.8-3.6,6.6c-2.1,19.1-9.8,35.7-23.4,49.4
			c-5.6,5.2-11,10.6-16.6,15.8c-21.6,20.1-47.7,22.1-71.8,4.9C658.1,694.8,651.5,687.8,644.4,681.6z"/>
		<circle id="XMLID_44_" class="st35" cx="659.9" cy="600.6" r="7.1"/>
		<path id="XMLID_28_" class="st18" d="M635.1,591.3c0,0,17.3-20.5,43.9-4.9l6.4-9.2C685.4,577.2,647.8,561.7,635.1,591.3z"/>
		<circle id="XMLID_24_" class="st35" cx="743.2" cy="601.4" r="7.1"/>
		<path id="XMLID_23_" class="st18" d="M767.9,592.1c0,0-17.3-20.5-43.9-4.9l-6.4-9.2C717.7,578,755.2,562.6,767.9,592.1z"/>
		<path id="XMLID_22_" class="st36" d="M678.3,653.2H721c0,0-0.7,24-21.5,24C679,677.4,678.3,653.2,678.3,653.2z"/>
		<polygon id="XMLID_17_" class="st37" points="678.8,657.3 720.7,657.3 721.2,653.2 678.3,653.2 		"/>
		<path id="XMLID_1108_" class="st18" d="M635.2,693.9c-0.7,3.2,0.7,8-5.9,5.7c-6.1-2.1-11.8-3.9-14.6-10.4
			c-21.9-49.9-31.3-101.7-19.3-155.4c10.8-48.5,50.2-77.8,99.9-80.2c63.1-3.1,105.7,40.9,112.4,98.5c5.4,47-3.9,91.1-21.6,133.9
			c-2.9,7.2-8.1,10.8-15.1,13.1c-5.4,1.8-8.8-0.3-8.5-4.7c3.5-14.6,7.9-28.7,10.4-44.9c4.4-23.2,3.1-40.3,3.1-60.6
			c0-5.7-4.6-3.8-8.2-3.5c-10.4,0.9-20.5,3.9-31.5,2.5c-26.9-3.5-47.7-17-66.1-35.8c-14.9-15.2-18.7-14.8-32.4,2.5
			c-1.4,1.7-2.5,3.5-3.5,5.6c-13.5,28.4-11.6,58.3-7.7,88.3C627.9,664,628.1,679.6,635.2,693.9z"/>
		<g id="XMLID_18_">
			<path id="XMLID_3_" class="st38" d="M702,636c-1.8,0-7.8-4.1-8.9-4.9c-0.5-0.4-0.8-0.9-0.9-1.6c-0.1-0.7,0.2-1.2,0.6-1.7
				c0.4-0.4,0.8-0.9,1.4-1.5c1.3-1.4,3.1-3.3,5.2-5.7c4.9-5.5-0.1-26.1-0.1-26.2l0.9-0.2c0.2,0.8,5.2,21.3-0.1,27.1
				c-2.1,2.4-3.9,4.3-5.2,5.7c-0.6,0.6-1,1.1-1.4,1.5c-0.4,0.4-0.4,0.7-0.4,0.9c0,0.4,0.2,0.7,0.5,0.9c3.4,2.3,7.3,4.8,8.4,4.8V636z
				"/>
		</g>
		<circle id="XMLID_16_" class="st39" cx="661.4" cy="595.8" r="1.5"/>
		<circle id="XMLID_20_" class="st39" cx="745.7" cy="597.3" r="1.5"/>
		<path id="XMLID_15_" class="st40" d="M648.3,626.7c-1.7,0-1.7,2.5,0,2.5S650,626.7,648.3,626.7z"/>
		<path id="XMLID_14_" class="st40" d="M657.8,626.7c-1.7,0-1.7,2.5,0,2.5S659.5,626.7,657.8,626.7z"/>
		<path id="XMLID_13_" class="st40" d="M653,631.6c-1.7,0-1.7,2.5,0,2.5C654.7,634.1,654.6,631.6,653,631.6z"/>
		<path id="XMLID_12_" class="st40" d="M662.7,631.6c-1.7,0-1.7,2.5,0,2.5S664.3,631.6,662.7,631.6z"/>
		<path id="XMLID_8_" class="st40" d="M657.8,637.1c-1.7,0-1.7,2.5,0,2.5S659.5,637.1,657.8,637.1z"/>
		<path id="XMLID_7_" class="st40" d="M667.6,626.7c-1.7,0-1.7,2.5,0,2.5C669.3,629.2,669.3,626.7,667.6,626.7z"/>
		<path id="XMLID_6_" class="st40" d="M734.5,627.7c-1.7,0-1.7,2.5,0,2.5C736.2,630.3,736.2,627.7,734.5,627.7z"/>
		<path id="XMLID_5_" class="st40" d="M744,627.7c-1.7,0-1.7,2.5,0,2.5S745.7,627.7,744,627.7z"/>
		<path id="XMLID_19_" class="st40" d="M739.2,632.6c-1.7,0-1.7,2.5,0,2.5C740.9,635.1,740.8,632.6,739.2,632.6z"/>
		<path id="XMLID_11_" class="st40" d="M749,632.6c-1.7,0-1.7,2.5,0,2.5C750.5,635.1,750.6,632.6,749,632.6z"/>
		<path id="XMLID_10_" class="st40" d="M744,637.9c-1.7,0-1.7,2.5,0,2.5S745.7,637.9,744,637.9z"/>
		<path id="XMLID_9_" class="st40" d="M753.8,627.7c-1.7,0-1.7,2.5,0,2.5C755.5,630.3,755.5,627.7,753.8,627.7z"/>
		<polygon id="XMLID_2_" class="st41" points="639.4,736.2 596.1,811.6 654.3,862.1 637.3,886.9 679.8,887.1 		"/>
		<polygon id="XMLID_4_" class="st41" points="756.9,736.2 800.3,811.6 742.1,862.1 759,886.9 716.5,887.1 		"/>
		<rect id="XMLID_1_" x="770.8" y="861.6" class="st42" width="51.5" height="12.1"/>
	</g>
</g>
</svg>
