<?xml version="1.0" encoding="utf-8"?>
<!-- Generator: Adobe Illustrator 24.3.0, SVG Export Plug-In . SVG Version: 6.00 Build 0)  -->
<svg version="1.1" xmlns="http://www.w3.org/2000/svg" xmlns:xlink="http://www.w3.org/1999/xlink" x="0px" y="0px"
	 viewBox="0 0 1200 1200" style="enable-background:new 0 0 1200 1200;" xml:space="preserve">
<style type="text/css">
	.st0{fill:#020202;}
</style>
<g id="Layer_4">
</g>
<g id="Layer_3">
</g>
<g id="Layer_5">
	<g>
		<path class="st0" d="M835.34,789.58c-19.95,5.76-37.24,19.81-38.8,41.27c-0.94,13.01,5.59,23.21,13.69,33.03
			c7.29,8.83,13.35,12.76,25.24,9.55c20.57-5.55,35.06-25.1,33.96-45.61C868.6,812.12,854.42,786.31,835.34,789.58z"/>
		<path class="st0" d="M352.55,428.52c20.57-5.55,35.06-25.1,33.96-45.61c-0.84-15.71-15.02-41.52-34.1-38.25
			c-19.95,5.76-37.24,19.81-38.8,41.27c-0.94,13.01,5.59,23.21,13.69,33.03C334.59,427.8,340.66,431.73,352.55,428.52z"/>
		<path class="st0" d="M593.5,135C331.44,135,119,347.44,119,609.5S331.44,1084,593.5,1084S1068,871.56,1068,609.5
			S855.56,135,593.5,135z M796.01,311.37c14.22,14,28.43,28,42.65,41.99c11.64-14.71,23.69-29.2,36.22-43.43
			c5.65-6.42,15.66-9.68,24.68-5.27c7.8,3.81,12.19,13.61,6.47,20.11c-15.06,17.11-29.44,34.59-43.21,52.39
			c18.44,18.16,36.88,36.32,55.32,54.48c14.7,14.48-10.7,35.38-25.51,20.79c-16.54-16.29-33.08-32.58-49.63-48.87
			c-11.92,16.45-23.3,33.16-34.11,50.13c-10.72,16.81-41.84,1.93-31.15-14.84c12.84-20.14,26.5-39.89,40.89-59.3
			c-16.04-15.79-32.08-31.59-48.12-47.38C755.8,317.68,781.2,296.79,796.01,311.37z M286.15,368.58c7.8-25.06,29.11-43.3,54.3-51.22
			c3.18-1.21,6.34-2.01,9.47-2.44c0.27-0.06,0.54-0.13,0.82-0.19c1.89-0.37,3.67-0.42,5.33-0.21c26.98,0.23,50.61,26.26,57.82,49.96
			c8.08,26.57-0.32,55.94-21.33,74.8c-20.84,18.7-56.16,29-79.45,8.43C290.47,427.72,277.05,397.8,286.15,368.58z M411.36,913.02
			c-16.54-16.29-33.08-32.58-49.63-48.87c-11.92,16.45-23.3,33.16-34.11,50.13c-10.72,16.81-41.84,1.93-31.15-14.84
			c12.84-20.14,26.5-39.89,40.89-59.3c-16.04-15.79-32.08-31.59-48.12-47.38c-14.7-14.48,10.7-35.38,25.51-20.79
			c14.22,14,28.43,28,42.65,41.99c11.64-14.71,23.69-29.2,36.22-43.43c5.65-6.42,15.66-9.68,24.68-5.27
			c7.8,3.81,12.19,13.61,6.47,20.11c-15.06,17.11-29.44,34.59-43.21,52.39c18.44,18.16,36.88,36.32,55.32,54.48
			C451.57,906.71,426.17,927.61,411.36,913.02z M652.49,878.32c-20.84,18.71-56.16,29-79.45,8.43
			c-22.64-19.99-36.06-49.91-26.96-79.13c7.8-25.06,29.11-43.3,54.3-51.22c3.18-1.21,6.34-2.01,9.47-2.44
			c0.27-0.06,0.54-0.13,0.82-0.19c1.89-0.37,3.67-0.42,5.33-0.21c26.98,0.23,50.61,26.26,57.82,49.96
			C681.9,830.09,673.5,859.46,652.49,878.32z M875.49,884.2c-20.84,18.71-56.16,29-79.45,8.43c-22.64-19.99-36.06-49.91-26.96-79.13
			c7.8-25.06,29.11-43.3,54.3-51.22c3.18-1.21,6.34-2.01,9.47-2.44c0.27-0.06,0.54-0.13,0.82-0.19c1.89-0.37,3.67-0.42,5.33-0.21
			c26.98,0.23,50.61,26.26,57.82,49.96C904.91,835.97,896.51,865.34,875.49,884.2z M900.78,708.36c13.1,0,23.81,8.82,23.81,19.6
			c0,10.78-10.72,19.6-23.81,19.6H739.8v169.17c0,12.6-9.14,22.91-20.31,22.91s-20.31-10.31-20.31-22.91V747.56H500.18v169.17
			c0,12.6-9.14,22.91-20.31,22.91s-20.31-10.31-20.31-22.91V747.56H286.41c-13.1,0-23.81-8.82-23.81-19.6
			c0-10.78,10.72-19.6,23.81-19.6h173.16V516.28H286.41c-13.1,0-23.81-8.82-23.81-19.6c0-10.78,10.72-19.6,23.81-19.6h173.16V325.55
			c0-12.6,9.14-22.91,20.31-22.91s20.31,10.31,20.31,22.91v151.53h199.01V325.55c0-12.6,9.14-22.91,20.31-22.91
			s20.31,10.31,20.31,22.91v151.53h160.98c13.1,0,23.81,8.82,23.81,19.6c0,10.78-10.72,19.6-23.81,19.6H739.8v192.08H900.78z"/>
		<path class="st0" d="M500.18,708.36h199.01V516.28H500.18V708.36z M554.49,540.69c14.22,14,28.43,28,42.65,41.99
			c11.64-14.71,23.69-29.2,36.22-43.43c5.65-6.42,15.66-9.68,24.68-5.27c7.8,3.81,12.19,13.61,6.47,20.11
			c-15.06,17.11-29.44,34.59-43.21,52.39c18.44,18.16,36.88,36.32,55.32,54.48c14.7,14.48-10.7,35.38-25.51,20.79
			c-16.54-16.29-33.08-32.58-49.63-48.87c-11.92,16.45-23.3,33.16-34.11,50.13c-10.72,16.81-41.84,1.93-31.15-14.84
			c12.84-20.14,26.5-39.89,40.89-59.3c-16.04-15.79-32.08-31.59-48.12-47.38C514.28,547,539.67,526.11,554.49,540.69z"/>
		<path class="st0" d="M612.34,783.7c-19.95,5.76-37.24,19.81-38.8,41.27c-0.94,13.01,5.59,23.21,13.69,33.03
			c7.29,8.83,13.35,12.76,25.24,9.55c20.57-5.55,35.06-25.1,33.96-45.61C645.59,806.24,631.42,780.43,612.34,783.7z"/>
	</g>
</g>
</svg>
